<svg xmlns="http://www.w3.org/2000/svg" width="128" height="128" fill="none"><path fill="#fff" d="M44.832 30h44.124s3.394 0 3.394 3.394v39.522s0 3.394-3.394 3.394H44.832s-3.395 0-3.395-3.394V33.394s0-3.394 3.395-3.394Z"/><path fill="#ACCCF8" d="M102.468 64.179a3.385 3.385 0 0 0-.697-2.827 3.4 3.4 0 0 0-2.632-1.246H57.39a3.394 3.394 0 0 1-3.33-2.715l-.944-4.752a3.394 3.394 0 0 0-3.33-2.716H27.862a3.394 3.394 0 0 0-3.33 4.073l8.825 44.125a3.394 3.394 0 0 0 3.33 2.715H92.35a3.394 3.394 0 0 0 3.327-2.715l6.791-33.942Z"/><path stroke="#1772EB" stroke-linecap="round" stroke-linejoin="round" stroke-width="3.54" d="M41.438 53.336V34.394A3.395 3.395 0 0 1 44.832 31h44.124a3.394 3.394 0 0 1 3.394 3.394V60M51.621 40h28.85M65.197 50.183h15.274"/><path fill="#fff" d="M57.39 60.106a3.394 3.394 0 0 1-3.33-2.715l-.943-4.752a3.394 3.394 0 0 0-3.33-2.716H27.862a3.394 3.394 0 0 0-3.326 4.073l8.825 44.125a3.394 3.394 0 0 0 3.326 2.715h4.48l40.73-40.73H57.391Z"/><path stroke="#1772EB" stroke-linecap="round" stroke-linejoin="round" stroke-width="3.54" d="M102.468 64.179a3.385 3.385 0 0 0-.697-2.827 3.4 3.4 0 0 0-2.632-1.246H57.39a3.394 3.394 0 0 1-3.33-2.715l-.944-4.752a3.394 3.394 0 0 0-3.33-2.716H27.862a3.394 3.394 0 0 0-3.33 4.073l8.825 44.125a3.394 3.394 0 0 0 3.33 2.715H92.35a3.394 3.394 0 0 0 3.327-2.715l6.791-33.942Z"/></svg>